{"title":"The Evil Inside (2011) DVDRip XviD AC3 peaSoup","uid":11331716,"size":892225042,"categoryP":"video","categoryS":"movies","magnet":"?xt=urn:btih:a37530613c21be3fea53bdc3c6f05696a1ddd692&amp;dn=The+Evil+Inside+%282011%29+DVDRip+XviD+AC3+peaSoup&amp;tr=udp%3A%2F%2Ftracker.openbittorrent.com%3A80&amp;tr=udp%3A%2F%2Fopen.demonii.com%3A1337&amp;tr=udp%3A%2F%2Ftracker.coppersurfer.tk%3A6969&amp;tr=udp%3A%2F%2Fexodus.desync.com%3A6969","seeders":1,"leechers":0,"uploader":"peaSoup","files":-1,"time":1414690887,"description":"Storyline\n\nSarah, a mentally-disturbed teen, has a jarring premonition of her friends' impending deaths one night at a sleepover. As her house guests begin to turn murderously against each other, Sarah must determine whether her visions represent the preventable or the inevitable... or something entirely more sinister.           &lt;a href=&quot; http://i.imgur.com/MNy94u7.jpg&quot; rel=&quot;nofollow&quot; target=&quot;_NEW&quot;&gt; http://i.imgur.com/MNy94u7.jpg&lt;/a&gt;                                                      &lt;a href=&quot; http://i.imgur.com/cs6IJhJ.jpg&quot; rel=&quot;nofollow&quot; target=&quot;_NEW&quot;&gt; http://i.imgur.com/cs6IJhJ.jpg&lt;/a&gt;                                                      &lt;a href=&quot; http://i.imgur.com/eTBDlqS.jpg&quot; rel=&quot;nofollow&quot; target=&quot;_NEW&quot;&gt; http://i.imgur.com/eTBDlqS.jpg&lt;/a&gt;                                                      &lt;a href=&quot; http://i.imgur.com/6B79yvm.jpg&quot; rel=&quot;nofollow&quot; target=&quot;_NEW&quot;&gt; http://i.imgur.com/6B79yvm.jpg&lt;/a&gt;                                                       \nFormat                                   : AVI\nFormat/Info                              : Audio Video Interleave\nFile size                                : 851 MiB\nDuration                                 : 1h 19mn\nOverall bit rate                         : 1 502 Kbps\nMovie name                               : The Evil Inside (2011) DVDRip XviD AC3 peaSoup\nWriting application                      : Lavf55.33.100\nOriginal source form/Name                : THE_EVIL_INSIDE\n\nVideo\nID                                       : 0\nFormat                                   : MPEG-4 Visual\nFormat profile                           : Advanced Simple@L5\nFormat settings, BVOP                    : 2\nFormat settings, QPel                    : No\nFormat settings, GMC                     : No warppoints\nFormat settings, Matrix                  : Default (MPEG)\nMuxing mode                              : Packed bitstream\nCodec ID                                 : XVID\nCodec ID/Hint                            : XviD\nDuration                                 : 1h 19mn\nBit rate                                 : 1 044 Kbps\nWidth                                    : 720 pixels\nHeight                                   : 308 pixels\nDisplay aspect ratio                     : 2.35:1\nFrame rate                               : 25.000 fps\nColor space                              : YUV\nChroma subsampling                       : 4:2:0\nBit depth                                : 8 bits\nScan type                                : Progressive\nCompression mode                         : Lossy\nBits/(Pixel*Frame)                       : 0.188\nStream size                              : 591 MiB (69%)\nWriting library                          : XviD 64\n\nAudio\nID                                       : 1\nFormat                                   : AC-3\nFormat/Info                              : Audio Coding 3\nMode extension                           : CM (complete main)\nFormat settings, Endianness              : Big\nCodec ID                                 : 2000\nDuration                                 : 1h 19mn\nBit rate mode                            : Constant\nBit rate                                 : 448 Kbps\nChannel(s)                               : 6 channels\nChannel positions                        : Front: L C R, Side: L R, LFE\nSampling rate                            : 48.0 KHz\nBit depth                                : 16 bits\nCompression mode                         : Lossy\nStream size                              : 254 MiB (30%)\nAlignment                                : Aligned on interleaves\nInterleave, duration                     : 32 ms (0.80 video frame)","torrent":{"xt":"urn:btih:a37530613c21be3fea53bdc3c6f05696a1ddd692","amp;dn":"The+Evil+Inside+%282011%29+DVDRip+XviD+AC3+peaSoup","amp;tr":["udp%3A%2F%2Ftracker.openbittorrent.com%3A80","udp%3A%2F%2Fopen.demonii.com%3A1337","udp%3A%2F%2Ftracker.coppersurfer.tk%3A6969","udp%3A%2F%2Fexodus.desync.com%3A6969"],"infoHash":"a37530613c21be3fea53bdc3c6f05696a1ddd692","infoHashBuffer":{"type":"Buffer","data":[163,117,48,97,60,33,190,63,234,83,189,195,198,240,86,150,161,221,214,146]},"announce":[],"urlList":[]}}